#!OML:ASF I:\salsa\salsa 7_09\Patient 1\Session 1\dancermale.ASF
:FULLY-SPECIFIED
:DEGREES
1806
root 6.50705 17.0864 7.70868 188.617 299.205 -901.266
lowerback -0.73046 0.54384 3.94503
upperback -1.21701 0.538976 5.52005
thorax -0.854195 0.170516 3.47534
lowerneck -13.6139 0.815529 -0.904092
upperneck 13.7879 2.36484 -7.7452
head 6.54222 0.354391 -2.12243
rclavicle 2.46493e-014 1.43125e-014
rhumerus -20.4782 32.6847 -98.0128
rradius 70.6575
rwrist 26.725
rhand -48.6391 15.9891
rfingers 7.12502
rthumb -21.2824 -12.8624
lclavicle 2.46493e-014 1.43125e-014
lhumerus 62.4474 2.18438 13.2484
lradius 82.6921
lwrist 58.6615
lhand -14.9314 58.7362
lfingers 7.12502
lthumb 11.2309 88.4156
rfemur -37.515 -12.9898 13.5321
rtibia 78.6071
rfoot 173.9 22.0176
rtoes 6.31937
lfemur -19.0823 5.17839 -28.6688
ltibia 31.0079
lfoot -23.9898 10.0298
ltoes -0.385836
1807
root 6.40357 17.0677 7.65727 189.104 298.675 -901.788
lowerback -1.27077 0.654093 3.9926
upperback -1.25978 0.665943 5.1563
thorax -0.593756 0.242345 3.07386
lowerneck -13.7159 0.428671 -0.848518
upperneck 14.0059 1.79005 -7.34445
head 6.60221 0.111796 -2.05956
rclavicle -4.13472e-014 2.54444e-014
rhumerus -21.9858 31.7056 -98.4278
rradius 70.5233
rwrist 27.1781
rhand -48.6904 16.4859
rfingers 7.12502
rthumb -21.3317 -12.36
lclavicle -4.13472e-014 2.54444e-014
lhumerus 60.8997 1.83977 12.3843
lradius 84.2008
lwrist 51.8466
lhand -16.3815 57.1917
lfingers 7.12502
lthumb 9.83207 86.9421
rfemur -37.4697 -13.3801 13.6698
rtibia 79.7997
rfoot 173.186 22.2181
rtoes 9.05925
lfemur -18.6552 5.68355 -28.9145
ltibia 31.0223
lfoot -24.3919 9.98959
ltoes -2.80093
1808
root 6.30359 17.0558 7.6173 189.532 298.159 -902.301
lowerback -1.56294 0.621609 4.28032
upperback -1.37072 0.620032 4.78474
thorax -0.535577 0.222512 2.5288
lowerneck -13.4948 0.312983 -0.96217
upperneck 14.082 1.60229 -7.01223
head 6.57686 0.0477502 -1.95127
rclavicle -4.50247e-014 1.43125e-014
rhumerus -23.7659 30.7133 -98.9206
rradius 70.6425
rwrist 27.6373
rhand -48.7605 16.7502
rfingers 7.12502
rthumb -21.399 -12.0881
lclavicle -4.50247e-014 1.43125e-014
lhumerus 58.8067 1.44094 11.4138
lradius 85.3512
lwrist 44.4176
lhand -18.1805 55.3135
lfingers 7.12502
lthumb 8.09609 85.1384
rfemur -37.444 -13.7015 13.7349
rtibia 82.0429
rfoot 171.715 43.7925
rtoes 7.9584
lfemur -18.253 6.31847 -29.1493
ltibia 31.0389
lfoot -24.7118 9.89103
ltoes -5.34369
1809
root 6.20586 17.0456 7.57826 190.176 297.595 -902.872
lowerback -1.94226 0.607829 4.47134
upperback -1.4968 0.590454 4.45538
thorax -0.446812 0.2106 2.08352
lowerneck -13.5301 0.26806 -1.13468
upperneck 14.3366 1.5445 -6.70264
head 6.65847 0.0298567 -1.83116
rclavicle -6.4605e-015 7.15625e-014
rhumerus -25.3936 29.3464 -99.0533
rradius 70.9084
rwrist 28.0846
rhand -48.5831 16.1241
rfingers 7.12502
rthumb -21.2286 -12.7335
lclavicle -6.4605e-015 7.15625e-014
lhumerus 56.7572 1.0433 10.7943
lradius 86.1467
lwrist 37.1715
lhand -19.8359 53.871
lfingers 7.12502
lthumb 6.49827 83.7513
rfemur -37.652 -13.9922 13.7981
rtibia 85.1478
rfoot 169.974 66.0272
rtoes 6.75946
lfemur -18.06 6.98504 -29.3973
ltibia 31.1121
lfoot -25.1992 9.56402
ltoes -7.22396
1810
root 6.11025 17.0485 7.5322 190.391 297.532 -903.348
lowerback -1.78083 0.749913 4.57963
upperback -1.53695 0.809453 4.09727
thorax -0.573009 0.322734 1.65457
lowerneck -13.8356 0.166033 -1.20172
upperneck 14.9753 1.39828 -6.278
head 6.90776 -0.0294069 -1.7046
rclavicle 6.26172e-014 2.22639e-014
rhumerus -26.9737 27.5459 -99.0241
rradius 71.2638
rwrist 28.4455
rhand -47.9332 14.9425
rfingers 7.12502
rthumb -20.6043 -13.984
lclavicle 6.26172e-014 2.22639e-014
lhumerus 54.8424 0.520337 10.3418
lradius 86.4578
lwrist 29.8071
lhand -21.1895 53.0103
lfingers 7.12502
lthumb 5.19139 82.9267
rfemur -37.5294 -13.5715 13.7188
rtibia 87.932
rfoot 152.132 87.6809
rtoes 7.74793
lfemur -17.2215 8.0931 -29.5143
ltibia 30.7337
lfoot -25.6845 8.96088
ltoes -7.34969
